<svg width="8" height="14" viewBox="0 0 8 14" fill="none" xmlns="http://www.w3.org/2000/svg">
<path d="M7.35156 7.00781C7.35156 6.84375 7.28125 6.69531 7.15625 6.57812L0.921874 0.65625C0.820312 0.554687 0.695312 0.492187 0.539062 0.492187C0.234374 0.492187 -5.59028e-07 0.726562 -5.45709e-07 1.03125C-5.39562e-07 1.17188 0.054687 1.32031 0.156249 1.42187L6.03125 7L0.15625 12.5937C0.0546875 12.6875 -3.00516e-08 12.8281 -2.35632e-08 12.9766C-1.02449e-08 13.2812 0.234375 13.5156 0.539062 13.5156C0.695312 13.5156 0.820312 13.4531 0.929687 13.3516L7.16406 7.42969C7.28125 7.30469 7.35156 7.17187 7.35156 7.00781Z" fill="#B69F58"/>
</svg>
