<svg width="12" height="20" viewBox="0 0 12 20" fill="none" xmlns="http://www.w3.org/2000/svg">
<path d="M0.78418 9.8916C0.78418 10.1162 0.862793 10.3071 1.03125 10.4644L10.0156 19.0107C10.1616 19.1567 10.3525 19.2354 10.5659 19.2354C11.0039 19.2354 11.3408 18.9097 11.3408 18.4604C11.3408 18.2471 11.251 18.0562 11.1274 17.9214L2.68213 9.8916L11.1274 1.86182C11.251 1.71582 11.3408 1.5249 11.3408 1.31152C11.3408 0.873535 11.0039 0.536621 10.5659 0.536621C10.3525 0.536621 10.1616 0.615234 10.0156 0.76123L1.03125 9.31885C0.862793 9.47607 0.78418 9.66699 0.78418 9.8916Z" fill="#B69F58"/>
</svg>
