<svg width="14" height="8" viewBox="0 0 14 8" fill="none" xmlns="http://www.w3.org/2000/svg">
<path d="M6.99219 7.35156C7.15625 7.35156 7.30469 7.28125 7.42188 7.15625L13.3438 0.921875C13.4453 0.820312 13.5078 0.695312 13.5078 0.539062C13.5078 0.234375 13.2734 0 12.9688 0C12.8281 0 12.6797 0.0546875 12.5781 0.15625L7 6.03125L1.40625 0.15625C1.3125 0.0546875 1.17188 0 1.02344 0C0.71875 0 0.484375 0.234375 0.484375 0.539062C0.484375 0.695312 0.546875 0.820312 0.648438 0.929688L6.57031 7.16406C6.69531 7.28125 6.82812 7.35156 6.99219 7.35156Z" fill="#B69F58"/>
</svg>
