<svg width="22" height="20" viewBox="0 0 22 20" fill="none" xmlns="http://www.w3.org/2000/svg">
<path d="M3.41943 19.3838C3.80127 19.3838 4.10449 19.0693 4.10449 18.71V15.2734C5.16016 14.9702 5.93506 13.9932 5.93506 12.8477C5.93506 11.7021 5.16016 10.7251 4.10449 10.4219V0.696289C4.10449 0.314453 3.80127 0 3.41943 0C3.02637 0 2.72314 0.314453 2.72314 0.696289V10.4106C1.66748 10.7139 0.881348 11.6909 0.881348 12.8477C0.881348 13.9932 1.66748 14.9702 2.72314 15.2734V18.71C2.72314 19.0693 3.02637 19.3838 3.41943 19.3838ZM11 19.3838C11.3818 19.3838 11.6963 19.0693 11.6963 18.6875V8.55762C12.7407 8.25439 13.5156 7.27734 13.5156 6.13184C13.5156 4.98633 12.7407 4.00928 11.6963 3.70605V0.673828C11.6963 0.314453 11.3818 0 11 0C10.6069 0 10.3037 0.314453 10.3037 0.673828V3.69482C9.24805 3.99805 8.46191 4.9751 8.46191 6.13184C8.46191 7.27734 9.24805 8.25439 10.3037 8.55762V18.6875C10.3037 19.0693 10.6069 19.3838 11 19.3838ZM16.0649 12.8477C16.0649 13.9932 16.8398 14.959 17.8843 15.2734V18.71C17.8843 19.0693 18.1875 19.3838 18.5806 19.3838C18.9624 19.3838 19.2769 19.0693 19.2769 18.71V15.2734C20.3325 14.9814 21.1187 14.0044 21.1187 12.8477C21.1187 11.6909 20.3325 10.7139 19.2769 10.4106V0.696289C19.2769 0.314453 18.9624 0 18.5806 0C18.1875 0 17.8843 0.314453 17.8843 0.696289V10.4219C16.8398 10.7251 16.0649 11.7021 16.0649 12.8477ZM9.60742 6.13184C9.60742 5.35693 10.2251 4.75049 11 4.75049C11.7749 4.75049 12.3813 5.35693 12.3813 6.13184C12.3813 6.90674 11.7749 7.51318 11 7.51318C10.2251 7.51318 9.60742 6.90674 9.60742 6.13184ZM2.02686 12.8477C2.02686 12.0728 2.64453 11.4663 3.41943 11.4663C4.19434 11.4663 4.78955 12.0728 4.78955 12.8477C4.78955 13.6226 4.19434 14.229 3.41943 14.229C2.64453 14.229 2.02686 13.6226 2.02686 12.8477ZM17.2104 12.8477C17.2104 12.0728 17.8281 11.4663 18.603 11.4663C19.3779 11.4663 19.9844 12.0728 19.9844 12.8477C19.9844 13.6226 19.3779 14.229 18.603 14.229C17.8281 14.229 17.2104 13.6226 17.2104 12.8477Z" fill="#B69F58"/>
</svg>
