<svg width="22" height="21" viewBox="0 0 22 21" fill="none" xmlns="http://www.w3.org/2000/svg">
<path d="M0.0615234 6.71338C0.0615234 11.3965 4.14941 15.9897 10.3149 19.9878C10.5171 20.1113 10.7979 20.2349 11 20.2349C11.2021 20.2349 11.4829 20.1113 11.6963 19.9878C17.8618 15.9897 21.9497 11.3965 21.9497 6.71338C21.9497 2.87256 19.2993 0.132324 15.7617 0.132324C13.729 0.132324 11.9658 1.17676 11 2.79395C10.0454 1.18799 8.271 0.132324 6.23828 0.132324C2.70068 0.132324 0.0615234 2.87256 0.0615234 6.71338ZM1.44287 6.71338C1.44287 3.625 3.47559 1.5249 6.22705 1.5249C8.31592 1.5249 9.60742 2.81641 10.3823 4.10791C10.6182 4.47852 10.7754 4.59082 11 4.59082C11.2246 4.59082 11.3706 4.46729 11.6289 4.10791C12.4263 2.82764 13.6953 1.5249 15.7729 1.5249C18.5244 1.5249 20.5571 3.625 20.5571 6.71338C20.5571 10.9248 16.166 15.3721 11.2021 18.6851C11.1123 18.7412 11.0449 18.7861 11 18.7861C10.9551 18.7861 10.8989 18.7412 10.8091 18.6851C5.84521 15.3721 1.44287 10.9248 1.44287 6.71338Z" fill="white"/>
</svg>
